# Blender v2.79 (sub 0) OBJ File: ''
# www.blender.org
mtllib drill_head.mtl
o Cube_Cube.001
v -0.500000 -0.000000 0.500000
v -0.500000 0.200000 0.500000
v -0.500000 -0.000000 -0.500000
v -0.500000 0.200000 -0.500000
v 0.500000 -0.000000 0.500000
v 0.500000 0.200000 0.500000
v 0.500000 -0.000000 -0.500000
v 0.500000 0.200000 -0.500000
v -0.150000 0.200000 -2.500000
v -0.150000 -0.000000 -2.500000
v 0.150000 -0.000000 -2.500000
v 0.150000 0.200000 -2.500000
v -2.500000 -0.000000 -0.150000
v -2.500000 -0.000000 0.150000
v -2.500000 0.200000 0.150000
v -2.500000 0.200000 -0.150000
v 2.500000 0.200000 -0.150000
v 2.500000 -0.000000 -0.150000
v 2.500000 -0.000000 0.150000
v 2.500000 0.200000 0.150000
v -0.150000 -0.000000 2.500000
v -0.150000 0.200000 2.500000
v 0.150000 0.200000 2.500000
v 0.150000 -0.000000 2.500000
v 0.000000 0.010000 0.707107
v 0.000000 0.190000 0.707107
v -0.707107 0.010000 0.000000
v -0.707107 0.190000 0.000000
v 0.707107 0.010000 0.000000
v 0.707107 0.190000 0.000000
v 0.000000 0.010000 -0.707107
v 0.000000 0.190000 -0.707107
v -1.873833 0.190000 -1.661701
v -1.873833 0.010000 -1.661701
v -1.661701 0.010000 -1.873833
v -1.661701 0.190000 -1.873833
v -1.873833 0.010000 1.661701
v -1.661701 0.010000 1.873833
v -1.661701 0.190000 1.873833
v -1.873833 0.190000 1.661701
v 1.661701 0.190000 -1.873833
v 1.661701 0.010000 -1.873833
v 1.873833 0.010000 -1.661701
v 1.873833 0.190000 -1.661701
v 1.661701 0.010000 1.873833
v 1.661701 0.190000 1.873833
v 1.873833 0.190000 1.661701
v 1.873833 0.010000 1.661701
v -1.721182 0.031848 1.721182
v 1.721182 0.031848 1.721182
v -1.721182 0.031848 -1.721182
v 1.721182 0.031848 -1.721182
v -2.458200 0.031848 0.000000
v 0.000000 0.031848 2.458200
v 2.458200 0.031848 0.000000
v 0.000000 0.031848 -2.458200
v 0.000000 0.031848 0.000000
vt 0.500000 0.250000
vt 0.500000 0.500000
vt 0.000000 0.437500
vt 0.000000 0.312500
vt 0.500000 0.750000
vt 0.500000 0.500000
vt 1.000000 0.562500
vt 1.000000 0.687500
vt 0.250000 0.062500
vt 0.250000 0.000000
vt 0.562500 0.000000
vt 0.562500 0.062500
vt 0.500000 0.687500
vt 0.500000 0.937500
vt -0.000000 0.875000
vt -0.000000 0.750000
vt 0.648158 0.648158
vt 0.351842 0.648158
vt 0.351842 0.351842
vt 0.648158 0.351842
vt 0.663954 0.663954
vt 0.336046 0.663954
vt 0.336046 0.336046
vt 0.663954 0.336046
vt 1.000000 0.125000
vt 1.000000 0.312500
vt 0.937500 0.312500
vt 0.937500 0.125000
vt 0.250000 0.062500
vt 0.250000 0.000000
vt 0.562500 0.000000
vt 0.562500 0.062500
vt 0.250000 0.062500
vt 0.250000 0.000000
vt 0.562500 0.000000
vt 0.562500 0.062500
vt 0.500000 1.000000
vt 0.500000 0.750000
vt 1.000000 0.812500
vt 1.000000 0.937500
vt 1.000000 0.125000
vt 1.000000 0.312500
vt 0.937500 0.312500
vt 0.937500 0.125000
vt 0.000000 0.062500
vt 0.000000 0.000000
vt 0.250000 0.062500
vt 0.250000 0.000000
vt 0.562500 0.000000
vt 0.562500 0.062500
vt 0.500000 0.437500
vt 0.500000 0.687500
vt -0.000000 0.625000
vt -0.000000 0.562500
vt 1.000000 0.125000
vt 1.000000 0.312500
vt 0.937500 0.312500
vt 0.937500 0.125000
vt 0.500000 0.750000
vt 0.500000 0.500000
vt 1.000000 0.562500
vt 1.000000 0.687500
vt 0.500000 1.000000
vt 0.500000 0.750000
vt 1.000000 0.812500
vt 1.000000 0.937500
vt -0.000000 0.062500
vt -0.000000 0.000000
vt 1.000000 0.125000
vt 1.000000 0.312500
vt 0.937500 0.312500
vt 0.937500 0.125000
vt 0.000000 0.062500
vt 0.000000 0.000000
vt 0.000000 0.062500
vt 0.000000 0.000000
vt 0.500000 0.750000
vt 0.500000 1.000000
vt 0.000000 0.937500
vt 0.000000 0.812500
vt 0.500000 0.250000
vt 0.500000 0.500000
vt 0.000000 0.437500
vt 0.000000 0.312500
vt 0.500000 0.500000
vt 0.500000 0.750000
vt 0.000000 0.687500
vt 0.000000 0.562500
vt 0.250000 0.062500
vt 0.250000 0.000000
vt 0.562500 0.000000
vt 0.562500 0.062500
vt 0.500000 0.250000
vt 0.500000 0.000000
vt 1.000000 0.062500
vt 1.000000 0.187500
vt 0.000100 0.714060
vt 0.500000 0.500000
vt 0.714060 0.999900
vt 0.000000 1.000000
vt 0.999900 0.285940
vt 1.000000 1.000000
vt 1.000000 0.125000
vt 1.000000 0.312500
vt 0.937500 0.312500
vt 0.937500 0.125000
vt 0.250000 0.062500
vt 0.250000 0.000000
vt 0.562500 0.000000
vt 0.562500 0.062500
vt 0.250000 0.000000
vt 0.250000 0.062500
vt 0.000000 0.062500
vt 0.000000 0.000000
vt 0.500000 0.000000
vt -0.000000 0.187500
vt 1.000000 0.125000
vt 1.000000 0.312500
vt 0.937500 0.312500
vt 0.937500 0.125000
vt 0.000000 0.062500
vt 0.000000 0.000000
vt 0.250000 0.000000
vt 0.250000 0.062500
vt 0.000000 0.062500
vt 0.000000 0.000000
vt 0.500000 0.250000
vt 0.000000 0.437500
vt 0.000000 0.312500
vt 1.000000 0.125000
vt 1.000000 0.312500
vt 0.937500 0.312500
vt 0.937500 0.125000
vt 0.500000 0.250000
vt 1.000000 0.187500
vt 0.500000 0.312500
vt 0.500000 0.062500
vt 1.000000 0.125000
vt 1.000000 0.187500
vt 0.562500 0.000000
vt 0.562500 0.062500
vt 1.000000 0.125000
vt 1.000000 0.312500
vt 0.937500 0.312500
vt 0.937500 0.125000
vt 0.000000 0.062500
vt 0.000000 0.000000
vt 0.562500 0.000000
vt 0.562500 0.062500
vt 0.500000 0.750000
vt 0.500000 0.500000
vt 1.000000 0.562500
vt 1.000000 0.687500
vt -0.000000 -0.000000
vt 0.285940 0.000100
vt 1.000000 0.000000
vn 0.0000 -1.0000 0.0000
vn 0.0000 1.0000 0.0000
vn 0.1724 0.0000 0.9850
vn 0.0000 0.0000 -1.0000
vn -0.9850 0.0000 -0.1724
vn 0.9850 0.0000 -0.1724
vn -1.0000 0.0000 0.0000
vn -0.1724 0.0000 -0.9850
vn -0.1724 0.0000 0.9850
vn 1.0000 0.0000 0.0000
vn 0.1724 0.0000 -0.9850
vn 0.0000 0.0000 1.0000
vn 0.9850 0.0000 0.1724
vn -0.9850 0.0000 0.1724
vn 0.8184 0.0000 0.5746
vn -0.7071 0.0000 -0.7071
vn -0.8184 0.0000 0.5746
vn 0.5746 0.0000 -0.8184
vn -0.7071 0.0000 0.7071
vn -0.8184 0.0000 -0.5746
vn 0.5746 0.0000 0.8184
vn 0.7071 0.0000 -0.7071
vn -0.5746 0.0000 -0.8184
vn 0.7071 0.0000 0.7071
vn 0.8184 0.0000 -0.5746
vn -0.5746 0.0000 0.8184
usemtl None
s off
f 3/1/1 1/2/1 14/3/1 13/4/1
f 4/5/2 8/6/2 12/7/2 9/8/2
f 6/9/3 5/10/3 19/11/3 20/12/3
f 6/13/2 2/14/2 22/15/2 23/16/2
f 3/17/1 7/18/1 5/19/1 1/20/1
f 8/21/2 4/22/2 2/23/2 6/24/2
f 10/25/4 9/26/4 12/27/4 11/28/4
f 3/29/5 4/30/5 9/31/5 10/32/5
f 8/33/6 7/34/6 11/35/6 12/36/6
f 7/37/1 3/38/1 10/39/1 11/40/1
f 14/41/7 15/42/7 16/43/7 13/44/7
f 4/30/8 3/29/8 13/45/8 16/46/8
f 1/47/9 2/48/9 15/49/9 14/50/9
f 2/51/2 4/52/2 16/53/2 15/54/2
f 18/55/10 17/56/10 20/57/10 19/58/10
f 5/59/1 7/60/1 18/61/1 19/62/1
f 8/63/2 6/64/2 20/65/2 17/66/2
f 7/34/11 8/33/11 17/67/11 18/68/11
f 24/69/12 23/70/12 22/71/12 21/72/12
f 5/10/13 6/9/13 23/73/13 24/74/13
f 2/48/14 1/47/14 21/75/14 22/76/14
f 1/77/1 5/78/1 24/79/1 21/80/1
f 27/81/1 25/82/1 38/83/1 37/84/1
f 28/85/2 32/86/2 36/87/2 33/88/2
f 30/89/15 29/90/15 43/91/15 44/92/15
f 30/93/2 26/94/2 46/95/2 47/96/2
f 53/97/2 57/98/2 56/99/2 51/100/2
f 57/98/2 55/101/2 52/102/2 56/99/2
f 34/103/16 33/104/16 36/105/16 35/106/16
f 27/107/17 28/108/17 33/109/17 34/110/17
f 32/111/18 31/112/18 35/113/18 36/114/18
f 31/115/1 27/81/1 34/116/1 35/113/1
f 38/117/19 39/118/19 40/119/19 37/120/19
f 28/108/20 27/107/20 37/121/20 40/122/20
f 25/123/21 26/124/21 39/125/21 38/126/21
f 26/127/2 28/85/2 40/128/2 39/129/2
f 42/130/22 41/131/22 44/132/22 43/133/22
f 29/134/1 31/115/1 42/130/1 43/135/1
f 32/136/2 30/137/2 44/138/2 41/139/2
f 31/112/23 32/111/23 41/140/23 42/141/23
f 48/142/24 47/143/24 46/144/24 45/145/24
f 29/90/25 30/89/25 47/146/25 48/147/25
f 26/124/26 25/123/26 45/148/26 46/149/26
f 25/150/1 29/151/1 48/152/1 45/153/1
f 49/154/2 54/155/2 57/98/2 53/97/2
f 54/155/2 50/156/2 55/101/2 57/98/2
